# xmcd
#
# Track frame offsets: 
#        150
#        14246
#        32742
#        49010
#        65977
#        86282
#        97954
#        112433
#        131295
#        144582
#        160523
#        172306
#        192275
#        208031
#        228642
#        241056
#
# Disc length: 3458 seconds
#
# Revision: 0
# Processed by: cddbd v1.5.2PL0 Copyright (c) Steve Scherf et al.
# Submitted via: ExactAudioCopyFreeDBPlugin 1.0
#
DISCID=e60d8010
DTITLE=2nd Mile - 1990-1999
DYEAR=1900
DGENRE=Gospel
TTITLE0=As for me and my house (Inside)
TTITLE1=We made the cross (Inside)
TTITLE2=Inside of me (Inside)
TTITLE3=Rough and rocky road (Inside)
TTITLE4=The Lamb was slain (Inside)
TTITLE5=What a little faith can do (Inside)
TTITLE6=One day past the storm (Inside)
TTITLE7=All alone (Inside)
TTITLE8=One left behind (Inside)
TTITLE9=The manna will fall (Inside)
TTITLE10=I'm going home (Inside)
TTITLE11=Way of no sacrifice (Abundant Supply)
TTITLE12=Abundant supply (Abundant Supply)
TTITLE13=In your hands (Abundant Supply)
TTITLE14=He's gonna do it again (Face to Face)
TTITLE15=Face to face (Face to Face)
EXTD=
EXTT0=
EXTT1=
EXTT2=
EXTT3=
EXTT4=
EXTT5=
EXTT6=
EXTT7=
EXTT8=
EXTT9=
EXTT10=
EXTT11=
EXTT12=
EXTT13=
EXTT14=
EXTT15=
PLAYORDER=
